# 3ds Max Wavefront OBJ Exporter v0.97b - (c)2007 guruware
# File Created: 30.10.2017 22:08:03

mtllib wall1.mtl

#
# object model
#

v  -10.00000 10.00000 0.00000
v  10.00000 10.00000 0.00000
v  10.00000 -10.00000 0.00000
v  -10.00000 -10.00000 0.00000
# 4 vertices

vn 0.00000 0.00000 -1.00000
# 1 vertex normals

vt -3.50000 4.50000 0.50000
vt 4.50000 4.50000 0.50000
vt 4.50000 -3.50000 0.50000
vt -3.50000 -3.50000 0.50000
# 4 texture coords

g model
usemtl 01___Default
f 1/1/1 2/2/1 3/3/1 
f 3/3/1 4/4/1 1/1/1 
# 2 faces

