# 3ds Max Wavefront OBJ Exporter v0.97b - (c)2007 guruware
# File Created: 24.10.2017 19:04:22

mtllib wall.mtl

#
# object model
#

v  -10.0000 10.0000 0.0000
v  10.0000 10.0000 0.0000
v  10.0000 -10.0000 -0.0000
v  -10.0000 -10.0000 -0.0000
# 4 vertices

vn 0.0000 0.0000 -1.0000
# 1 vertex normals

vt -0.2985 1.0117 1.0000
vt 1.2985 1.0117 1.0000
vt 1.2985 0.0089 0.0000
vt -0.2985 0.0089 0.0000
# 4 texture coords

o model
g model
usemtl 01___Default
s off
f 1/1/1 2/2/1 3/3/1 
f 3/3/1 4/4/1 1/1/1 
# 2 faces

